<?xml version="1.0" standalone="no"?>
<!DOCTYPE svg PUBLIC "-//W3C//DTD SVG 20010904//EN"
 "http://www.w3.org/TR/2001/REC-SVG-20010904/DTD/svg10.dtd">
<svg version="1.0" xmlns="http://www.w3.org/2000/svg"
 width="1440.000000pt" height="1440.000000pt" viewBox="0 0 1440.000000 1440.000000"
 preserveAspectRatio="xMidYMid meet">
<metadata>
Created by potrace 1.14, written by Peter Selinger 2001-2017
</metadata>
<g transform="translate(0.000000,1440.000000) scale(0.100000,-0.100000)"
fill="#000000" stroke="none">
<path d="M3770 14315 l0 -85 -165 0 -165 0 0 -80 0 -80 -165 0 -165 0 0 -85 0
-85 -80 0 -80 0 0 -80 0 -80 -80 0 -80 0 0 -165 0 -165 -165 0 -165 0 0 85 0
85 -165 0 -165 0 0 80 0 80 -160 0 -160 0 0 -80 0 -80 -85 0 -85 0 0 -85 0
-85 -80 0 -80 0 0 -815 0 -815 80 0 80 0 0 -245 0 -245 -245 0 -245 0 0 -85 0
-85 -165 0 -165 0 0 -80 0 -80 -80 0 -80 0 0 -85 0 -85 -80 0 -80 0 0 -80 0
-80 -85 0 -85 0 0 -80 0 -80 -80 0 -80 0 0 -85 0 -85 -85 0 -85 0 0 -245 0
-245 85 0 85 0 0 -80 0 -80 -85 0 -85 0 0 -85 0 -85 85 0 85 0 0 -80 0 -80
-85 0 -85 0 0 -80 0 -80 85 0 85 0 0 -85 0 -85 -85 0 -85 0 0 -245 0 -245 85
0 85 0 0 -160 0 -160 80 0 80 0 0 -330 0 -330 85 0 85 0 0 -165 0 -165 80 0
80 0 0 -160 0 -160 80 0 80 0 0 -85 0 -85 85 0 85 0 0 -80 0 -80 160 0 160 0
0 -85 0 -85 165 0 165 0 0 -80 0 -80 330 0 330 0 0 -80 0 -80 -85 0 -85 0 0
-85 0 -85 -160 0 -160 0 0 -80 0 -80 -165 0 -165 0 0 -80 0 -80 80 0 80 0 0
-85 0 -85 85 0 85 0 0 -80 0 -80 160 0 160 0 0 -80 0 -80 85 0 85 0 0 -85 0
-85 -85 0 -85 0 0 -80 0 -80 -80 0 -80 0 0 -85 0 -85 -80 0 -80 0 0 -80 0 -80
-85 0 -85 0 0 -80 0 -80 -80 0 -80 0 0 -85 0 -85 -165 0 -165 0 0 -325 0 -325
-80 0 -80 0 0 -80 0 -80 -85 0 -85 0 0 -85 0 -85 -80 0 -80 0 0 -80 0 -80 -80
0 -80 0 0 -245 0 -245 -85 0 -85 0 0 -165 0 -165 -80 0 -80 0 0 -80 0 -80 -85
0 -85 0 0 -165 0 -165 85 0 85 0 0 -85 0 -85 -85 0 -85 0 0 -80 0 -80 85 0 85
0 0 -80 0 -80 -85 0 -85 0 0 -85 0 -85 85 0 85 0 0 -80 0 -80 -85 0 -85 0 0
-80 0 -80 85 0 85 0 0 -85 0 -85 -85 0 -85 0 0 -80 0 -80 85 0 85 0 0 -80 0
-80 -85 0 -85 0 0 -80 0 -80 85 0 85 0 0 80 0 80 80 0 80 0 0 -80 0 -80 85 0
85 0 0 80 0 80 80 0 80 0 0 -80 0 -80 80 0 80 0 0 80 0 80 85 0 85 0 0 -80 0
-80 80 0 80 0 0 80 0 80 80 0 80 0 0 -80 0 -80 85 0 85 0 0 80 0 80 80 0 80 0
0 80 0 80 85 0 85 0 0 -160 0 -160 160 0 160 0 0 80 0 80 -80 0 -80 0 0 80 0
80 -80 0 -80 0 0 80 0 80 80 0 80 0 0 85 0 85 -80 0 -80 0 0 80 0 80 -85 0
-85 0 0 80 0 80 85 0 85 0 0 85 0 85 80 0 80 0 0 -85 0 -85 80 0 80 0 0 -80 0
-80 85 0 85 0 0 80 0 80 80 0 80 0 0 -80 0 -80 80 0 80 0 0 80 0 80 -80 0 -80
0 0 85 0 85 80 0 80 0 0 80 0 80 -80 0 -80 0 0 80 0 80 -80 0 -80 0 0 -80 0
-80 80 0 80 0 0 -80 0 -80 -80 0 -80 0 0 -85 0 -85 -85 0 -85 0 0 85 0 85 -80
0 -80 0 0 410 0 410 80 0 80 0 0 -85 0 -85 85 0 85 0 0 -80 0 -80 80 0 80 0 0
80 0 80 -80 0 -80 0 0 85 0 85 -85 0 -85 0 0 80 0 80 85 0 85 0 0 325 0 325
245 0 245 0 0 85 0 85 160 0 160 0 0 80 0 80 85 0 85 0 0 85 0 85 165 0 165 0
0 -575 0 -575 80 0 80 0 0 -245 0 -245 80 0 80 0 0 -85 0 -85 85 0 85 0 0 -80
0 -80 80 0 80 0 0 -80 0 -80 80 0 80 0 0 -85 0 -85 85 0 85 0 0 -80 0 -80 80
0 80 0 0 -80 0 -80 85 0 85 0 0 -85 0 -85 80 0 80 0 0 -80 0 -80 -165 0 -165
0 0 -80 0 -80 -80 0 -80 0 0 -80 0 -80 245 0 245 0 0 80 0 80 80 0 80 0 0 -80
0 -80 85 0 85 0 0 80 0 80 80 0 80 0 0 -80 0 -80 80 0 80 0 0 80 0 80 85 0 85
0 0 80 0 80 -85 0 -85 0 0 -80 0 -80 -80 0 -80 0 0 80 0 80 -80 0 -80 0 0 80
0 80 -85 0 -85 0 0 85 0 85 -80 0 -80 0 0 80 0 80 -80 0 -80 0 0 80 0 80 -85
0 -85 0 0 85 0 85 -165 0 -165 0 0 80 0 80 -80 0 -80 0 0 165 0 165 -80 0 -80
0 0 80 0 80 -85 0 -85 0 0 245 0 245 -80 0 -80 0 0 245 0 245 80 0 80 0 0 250
0 250 85 0 85 0 0 80 0 80 80 0 80 0 0 165 0 165 80 0 80 0 0 80 0 80 85 0 85
0 0 245 0 245 80 0 80 0 0 410 0 410 85 0 85 0 0 80 0 80 -165 0 -165 0 0 85
0 85 -85 0 -85 0 0 160 0 160 -80 0 -80 0 0 85 0 85 -80 0 -80 0 0 655 0 655
160 0 160 0 0 160 0 160 85 0 85 0 0 -80 0 -80 80 0 80 0 0 -245 0 -245 -80 0
-80 0 0 -80 0 -80 -85 0 -85 0 0 -85 0 -85 85 0 85 0 0 -80 0 -80 -85 0 -85 0
0 -85 0 -85 85 0 85 0 0 -80 0 -80 -85 0 -85 0 0 -80 0 -80 85 0 85 0 0 -85 0
-85 80 0 80 0 0 85 0 85 85 0 85 0 0 -85 0 -85 80 0 80 0 0 85 0 85 80 0 80 0
0 -85 0 -85 85 0 85 0 0 -80 0 -80 80 0 80 0 0 -80 0 -80 80 0 80 0 0 -85 0
-85 85 0 85 0 0 -80 0 -80 80 0 80 0 0 80 0 80 80 0 80 0 0 -80 0 -80 85 0 85
0 0 165 0 165 80 0 80 0 0 -85 0 -85 165 0 165 0 0 -160 0 -160 325 0 325 0 0
-250 0 -250 85 0 85 0 0 -80 0 -80 80 0 80 0 0 -80 0 -80 165 0 165 0 0 -85 0
-85 325 0 325 0 0 85 0 85 165 0 165 0 0 80 0 80 165 0 165 0 0 -80 0 -80 410
0 410 0 0 -85 0 -85 325 0 325 0 0 -80 0 -80 165 0 165 0 0 -80 0 -80 80 0 80
0 0 -245 0 -245 -245 0 -245 0 0 -85 0 -85 -245 0 -245 0 0 -80 0 -80 -80 0
-80 0 0 -165 0 -165 -330 0 -330 0 0 -80 0 -80 165 0 165 0 0 -85 0 -85 -80 0
-80 0 0 -80 0 -80 -85 0 -85 0 0 -80 0 -80 -245 0 -245 0 0 -85 0 -85 -80 0
-80 0 0 85 0 85 -410 0 -410 0 0 80 0 80 -80 0 -80 0 0 165 0 165 -85 0 -85 0
0 80 0 80 -80 0 -80 0 0 165 0 165 -85 0 -85 0 0 80 0 80 -80 0 -80 0 0 165 0
165 -80 0 -80 0 0 165 0 165 -85 0 -85 0 0 160 0 160 -80 0 -80 0 0 85 0 85
-80 0 -80 0 0 -165 0 -165 80 0 80 0 0 -165 0 -165 80 0 80 0 0 -160 0 -160
85 0 85 0 0 -165 0 -165 80 0 80 0 0 -85 0 -85 80 0 80 0 0 -160 0 -160 85 0
85 0 0 -165 0 -165 -85 0 -85 0 0 -80 0 -80 -160 0 -160 0 0 -330 0 -330 -85
0 -85 0 0 -490 0 -490 -80 0 -80 0 0 -80 0 -80 80 0 80 0 0 -80 0 -80 165 0
165 0 0 80 0 80 80 0 80 0 0 -80 0 -80 85 0 85 0 0 80 0 80 -85 0 -85 0 0 80
0 80 -80 0 -80 0 0 80 0 80 -80 0 -80 0 0 245 0 245 80 0 80 0 0 85 0 85 80 0
80 0 0 -85 0 -85 165 0 165 0 0 -80 0 -80 85 0 85 0 0 -80 0 -80 160 0 160 0
0 -85 0 -85 85 0 85 0 0 165 0 165 80 0 80 0 0 -80 0 -80 165 0 165 0 0 -85 0
-85 160 0 160 0 0 -80 0 -80 -80 0 -80 0 0 -160 0 -160 80 0 80 0 0 80 0 80
85 0 85 0 0 -80 0 -80 80 0 80 0 0 80 0 80 85 0 85 0 0 -80 0 -80 80 0 80 0 0
80 0 80 80 0 80 0 0 -80 0 -80 85 0 85 0 0 80 0 80 -85 0 -85 0 0 80 0 80 -80
0 -80 0 0 80 0 80 -80 0 -80 0 0 -80 0 -80 -85 0 -85 0 0 245 0 245 85 0 85 0
0 -80 0 -80 245 0 245 0 0 -85 0 -85 160 0 160 0 0 -80 0 -80 245 0 245 0 0
-80 0 -80 165 0 165 0 0 -80 0 -80 165 0 165 0 0 80 0 80 -80 0 -80 0 0 80 0
80 -250 0 -250 0 0 80 0 80 -160 0 -160 0 0 85 0 85 -165 0 -165 0 0 80 0 80
-245 0 -245 0 0 80 0 80 -165 0 -165 0 0 85 0 85 -165 0 -165 0 0 160 0 160
-80 0 -80 0 0 85 0 85 80 0 80 0 0 80 0 80 250 0 250 0 0 85 0 85 160 0 160 0
0 80 0 80 85 0 85 0 0 80 0 80 160 0 160 0 0 85 0 85 -80 0 -80 0 0 245 0 245
325 0 325 0 0 80 0 80 250 0 250 0 0 410 0 410 -85 0 -85 0 0 490 0 490 165 0
165 0 0 -80 0 -80 325 0 325 0 0 80 0 80 85 0 85 0 0 85 0 85 80 0 80 0 0 80
0 80 85 0 85 0 0 80 0 80 -85 0 -85 0 0 85 0 85 -80 0 -80 0 0 80 0 80 245 0
245 0 0 80 0 80 80 0 80 0 0 85 0 85 85 0 85 0 0 80 0 80 80 0 80 0 0 80 0 80
80 0 80 0 0 85 0 85 165 0 165 0 0 165 0 165 -325 0 -325 0 0 80 0 80 -85 0
-85 0 0 245 0 245 85 0 85 0 0 330 0 330 80 0 80 0 0 80 0 80 80 0 80 0 0 165
0 165 85 0 85 0 0 80 0 80 80 0 80 0 0 165 0 165 80 0 80 0 0 80 0 80 80 0 80
0 0 410 0 410 -80 0 -80 0 0 80 0 80 80 0 80 0 0 85 0 85 -80 0 -80 0 0 80 0
80 80 0 80 0 0 80 0 80 -80 0 -80 0 0 85 0 85 80 0 80 0 0 165 0 165 -80 0
-80 0 0 80 0 80 -160 0 -160 0 0 80 0 80 -85 0 -85 0 0 85 0 85 -80 0 -80 0 0
80 0 80 -165 0 -165 0 0 80 0 80 -900 0 -900 0 0 85 0 85 -80 0 -80 0 0 80 0
80 80 0 80 0 0 80 0 80 -165 0 -165 0 0 85 0 85 -80 0 -80 0 0 80 0 80 -80 0
-80 0 0 85 0 85 -85 0 -85 0 0 80 0 80 -160 0 -160 0 0 80 0 80 -85 0 -85 0 0
85 0 85 -80 0 -80 0 0 80 0 80 -165 0 -165 0 0 80 0 80 -80 0 -80 0 0 85 0 85
-165 0 -165 0 0 80 0 80 -80 0 -80 0 0 85 0 85 -245 0 -245 0 0 -85 0 -85 160
0 160 0 0 -80 0 -80 165 0 165 0 0 -85 0 -85 80 0 80 0 0 -80 0 -80 165 0 165
0 0 -80 0 -80 85 0 85 0 0 -85 0 -85 80 0 80 0 0 -80 0 -80 165 0 165 0 0 -80
0 -80 80 0 80 0 0 -85 0 -85 80 0 80 0 0 -80 0 -80 85 0 85 0 0 -85 0 -85 -85
0 -85 0 0 -80 0 -80 -80 0 -80 0 0 -80 0 -80 -80 0 -80 0 0 -85 0 -85 -165 0
-165 0 0 -80 0 -80 -165 0 -165 0 0 -80 0 -80 -80 0 -80 0 0 -85 0 -85 -245 0
-245 0 0 -80 0 -80 -245 0 -245 0 0 -80 0 -80 -245 0 -245 0 0 -85 0 -85 -820
0 -820 0 0 85 0 85 -85 0 -85 0 0 160 0 160 -80 0 -80 0 0 165 0 165 -165 0
-165 0 0 490 0 490 -80 0 -80 0 0 575 0 575 -80 0 -80 0 0 80 0 80 80 0 80 0
0 85 0 85 -900 0 -900 0 0 -85z m980 -165 l0 -80 165 0 165 0 0 80 0 80 80 0
80 0 0 -165 0 -165 85 0 85 0 0 -655 0 -655 80 0 80 0 0 -80 0 -80 -80 0 -80
0 0 -165 0 -165 80 0 80 0 0 -80 0 -80 -80 0 -80 0 0 -80 0 -80 -165 0 -165 0
0 -85 0 -85 -490 0 -490 0 0 -80 0 -80 -85 0 -85 0 0 -245 0 -245 85 0 85 0 0
-330 0 -330 80 0 80 0 0 -80 0 -80 80 0 80 0 0 -80 0 -80 -80 0 -80 0 0 -85 0
-85 80 0 80 0 0 -80 0 -80 85 0 85 0 0 80 0 80 80 0 80 0 0 85 0 85 85 0 85 0
0 -85 0 -85 80 0 80 0 0 85 0 85 80 0 80 0 0 80 0 80 410 0 410 0 0 80 0 80
1310 0 1310 0 0 85 0 85 325 0 325 0 0 80 0 80 165 0 165 0 0 80 0 80 85 0 85
0 0 85 0 85 -165 0 -165 0 0 -85 0 -85 -165 0 -165 0 0 -80 0 -80 -570 0 -570
0 0 -80 0 -80 -655 0 -655 0 0 80 0 80 -85 0 -85 0 0 165 0 165 820 0 820 0 0
80 0 80 245 0 245 0 0 85 0 85 325 0 325 0 0 80 0 80 165 0 165 0 0 80 0 80
85 0 85 0 0 85 0 85 160 0 160 0 0 80 0 80 165 0 165 0 0 80 0 80 80 0 80 0 0
85 0 85 165 0 165 0 0 -85 0 -85 -80 0 -80 0 0 -80 0 -80 -165 0 -165 0 0
-165 0 -165 -80 0 -80 0 0 -80 0 -80 -85 0 -85 0 0 -165 0 -165 85 0 85 0 0
85 0 85 80 0 80 0 0 80 0 80 80 0 80 0 0 80 0 80 85 0 85 0 0 85 0 85 80 0 80
0 0 80 0 80 80 0 80 0 0 165 0 165 85 0 85 0 0 -245 0 -245 -85 0 -85 0 0
-165 0 -165 -80 0 -80 0 0 -80 0 -80 -165 0 -165 0 0 -85 0 -85 -80 0 -80 0 0
-80 0 -80 -80 0 -80 0 0 -85 0 -85 -85 0 -85 0 0 -160 0 -160 -245 0 -245 0 0
-85 0 -85 -245 0 -245 0 0 -80 0 -80 -165 0 -165 0 0 -80 0 -80 85 0 85 0 0
-85 0 -85 -330 0 -330 0 0 -80 0 -80 -80 0 -80 0 0 -85 0 -85 -80 0 -80 0 0
-80 0 -80 -85 0 -85 0 0 -80 0 -80 -80 0 -80 0 0 -85 0 -85 -165 0 -165 0 0
-80 0 -80 -165 0 -165 0 0 -80 0 -80 -80 0 -80 0 0 -85 0 -85 -165 0 -165 0 0
-80 0 -80 -165 0 -165 0 0 -80 0 -80 -80 0 -80 0 0 80 0 80 -80 0 -80 0 0 -80
0 -80 -85 0 -85 0 0 -85 0 -85 -80 0 -80 0 0 -80 0 -80 -80 0 -80 0 0 80 0 80
-85 0 -85 0 0 -80 0 -80 -80 0 -80 0 0 -85 0 -85 -80 0 -80 0 0 85 0 85 -250
0 -250 0 0 -85 0 -85 -160 0 -160 0 0 -80 0 -80 -495 0 -495 0 0 -80 0 -80
-80 0 -80 0 0 80 0 80 -80 0 -80 0 0 -80 0 -80 -85 0 -85 0 0 80 0 80 -80 0
-80 0 0 -80 0 -80 -80 0 -80 0 0 80 0 80 -85 0 -85 0 0 -80 0 -80 -80 0 -80 0
0 80 0 80 -80 0 -80 0 0 80 0 80 -85 0 -85 0 0 -80 0 -80 -80 0 -80 0 0 80 0
80 -85 0 -85 0 0 85 0 85 -80 0 -80 0 0 80 0 80 -80 0 -80 0 0 85 0 85 -85 0
-85 0 0 80 0 80 -80 0 -80 0 0 -80 0 -80 -80 0 -80 0 0 80 0 80 -85 0 -85 0 0
80 0 80 -80 0 -80 0 0 85 0 85 80 0 80 0 0 80 0 80 -80 0 -80 0 0 80 0 80 80
0 80 0 0 85 0 85 -80 0 -80 0 0 80 0 80 80 0 80 0 0 80 0 80 -80 0 -80 0 0 85
0 85 80 0 80 0 0 80 0 80 -80 0 -80 0 0 85 0 85 80 0 80 0 0 80 0 80 85 0 85
0 0 80 0 80 80 0 80 0 0 85 0 85 80 0 80 0 0 80 0 80 -80 0 -80 0 0 80 0 80
165 0 165 0 0 85 0 85 245 0 245 0 0 80 0 80 165 0 165 0 0 -245 0 -245 160 0
160 0 0 165 0 165 -80 0 -80 0 0 245 0 245 -80 0 -80 0 0 245 0 245 -85 0 -85
0 0 575 0 575 85 0 85 0 0 160 0 160 245 0 245 0 0 -80 0 -80 80 0 80 0 0 -80
0 -80 80 0 80 0 0 -165 0 -165 85 0 85 0 0 -85 0 -85 80 0 80 0 0 -80 0 -80
80 0 80 0 0 -80 0 -80 85 0 85 0 0 -85 0 -85 80 0 80 0 0 -80 0 -80 85 0 85 0
0 -165 0 -165 245 0 245 0 0 85 0 85 -85 0 -85 0 0 80 0 80 -80 0 -80 0 0 325
0 325 80 0 80 0 0 165 0 165 85 0 85 0 0 165 0 165 80 0 80 0 0 80 0 80 80 0
80 0 0 85 0 85 -160 0 -160 0 0 -85 0 -85 -85 0 -85 0 0 -160 0 -160 -80 0
-80 0 0 -85 0 -85 -80 0 -80 0 0 -325 0 -325 -85 0 -85 0 0 80 0 80 -80 0 -80
0 0 80 0 80 -85 0 -85 0 0 85 0 85 -80 0 -80 0 0 80 0 80 -80 0 -80 0 0 165 0
165 80 0 80 0 0 165 0 165 80 0 80 0 0 80 0 80 85 0 85 0 0 80 0 80 165 0 165
0 0 85 0 85 490 0 490 0 0 80 0 80 80 0 80 0 0 -80z m7370 -2290 l0 -80 80 0
80 0 0 80 0 80 80 0 80 0 0 -80 0 -80 85 0 85 0 0 80 0 80 80 0 80 0 0 -80 0
-80 85 0 85 0 0 -85 0 -85 80 0 80 0 0 85 0 85 80 0 80 0 0 -85 0 -85 85 0 85
0 0 -80 0 -80 80 0 80 0 0 80 0 80 80 0 80 0 0 -80 0 -80 85 0 85 0 0 -80 0
-80 80 0 80 0 0 -85 0 -85 80 0 80 0 0 -80 0 -80 -80 0 -80 0 0 -85 0 -85 80
0 80 0 0 -80 0 -80 -80 0 -80 0 0 -80 0 -80 80 0 80 0 0 -85 0 -85 -80 0 -80
0 0 -80 0 -80 80 0 80 0 0 -80 0 -80 -80 0 -80 0 0 80 0 80 -80 0 -80 0 0 -80
0 -80 -85 0 -85 0 0 80 0 80 -80 0 -80 0 0 80 0 80 -80 0 -80 0 0 -80 0 -80
-85 0 -85 0 0 80 0 80 -80 0 -80 0 0 -80 0 -80 -80 0 -80 0 0 80 0 80 80 0 80
0 0 85 0 85 -80 0 -80 0 0 80 0 80 -85 0 -85 0 0 80 0 80 -80 0 -80 0 0 -80 0
-80 -85 0 -85 0 0 80 0 80 -80 0 -80 0 0 -80 0 -80 -80 0 -80 0 0 -80 0 -80
-85 0 -85 0 0 80 0 80 -80 0 -80 0 0 -80 0 -80 -80 0 -80 0 0 -85 0 -85 -85 0
-85 0 0 -80 0 -80 -80 0 -80 0 0 80 0 80 -85 0 -85 0 0 85 0 85 85 0 85 0 0
80 0 80 80 0 80 0 0 80 0 80 85 0 85 0 0 85 0 85 80 0 80 0 0 80 0 80 80 0 80
0 0 85 0 85 -80 0 -80 0 0 80 0 80 -80 0 -80 0 0 80 0 80 80 0 80 0 0 85 0 85
80 0 80 0 0 80 0 80 85 0 85 0 0 -80z m-6220 -245 l0 -165 80 0 80 0 0 -80 0
-80 -80 0 -80 0 0 -165 0 -165 160 0 160 0 0 -85 0 -85 85 0 85 0 0 -160 0
-160 -330 0 -330 0 0 245 0 245 -80 0 -80 0 0 -245 0 -245 -80 0 -80 0 0 -85
0 -85 -245 0 -245 0 0 -80 0 -80 -165 0 -165 0 0 80 0 80 -85 0 -85 0 0 165 0
165 -80 0 -80 0 0 245 0 245 -80 0 -80 0 0 85 0 85 80 0 80 0 0 80 0 80 490 0
490 0 0 80 0 80 85 0 85 0 0 -160 0 -160 160 0 160 0 0 245 0 245 85 0 85 0 0
-165z m3270 -3030 l0 -85 80 0 80 0 0 85 0 85 85 0 85 0 0 -85 0 -85 80 0 80
0 0 -80 0 -80 85 0 85 0 0 -80 0 -80 -85 0 -85 0 0 -85 0 -85 85 0 85 0 0 -80
0 -80 80 0 80 0 0 -85 0 -85 -80 0 -80 0 0 -80 0 -80 -85 0 -85 0 0 80 0 80
-80 0 -80 0 0 85 0 85 -85 0 -85 0 0 80 0 80 -80 0 -80 0 0 85 0 85 80 0 80 0
0 80 0 80 -80 0 -80 0 0 80 0 80 -80 0 -80 0 0 85 0 85 80 0 80 0 0 -85z
m-1310 -325 l0 -80 85 0 85 0 0 80 0 80 80 0 80 0 0 -80 0 -80 80 0 80 0 0
-85 0 -85 85 0 85 0 0 -80 0 -80 80 0 80 0 0 -85 0 -85 -80 0 -80 0 0 85 0 85
-85 0 -85 0 0 -85 0 -85 -80 0 -80 0 0 85 0 85 -80 0 -80 0 0 -85 0 -85 -85 0
-85 0 0 -80 0 -80 -80 0 -80 0 0 -80 0 -80 165 0 165 0 0 80 0 80 245 0 245 0
0 -80 0 -80 325 0 325 0 0 -85 0 -85 80 0 80 0 0 -80 0 -80 85 0 85 0 0 -80 0
-80 80 0 80 0 0 160 0 160 -80 0 -80 0 0 85 0 85 165 0 165 0 0 -85 0 -85 80
0 80 0 0 165 0 165 80 0 80 0 0 -325 0 -325 85 0 85 0 0 -250 0 -250 80 0 80
0 0 -80 0 -80 -80 0 -80 0 0 -80 0 -80 80 0 80 0 0 -85 0 -85 80 0 80 0 0 330
0 330 85 0 85 0 0 -245 0 -245 80 0 80 0 0 -655 0 -655 80 0 80 0 0 -245 0
-245 -245 0 -245 0 0 80 0 80 -405 0 -405 0 0 80 0 80 -250 0 -250 0 0 250 0
250 85 0 85 0 0 80 0 80 -85 0 -85 0 0 80 0 80 -80 0 -80 0 0 245 0 245 80 0
80 0 0 165 0 165 85 0 85 0 0 -80 0 -80 80 0 80 0 0 -85 0 -85 165 0 165 0 0
85 0 85 80 0 80 0 0 80 0 80 -160 0 -160 0 0 80 0 80 -85 0 -85 0 0 85 0 85
-80 0 -80 0 0 80 0 80 -165 0 -165 0 0 85 0 85 -80 0 -80 0 0 80 0 80 -165 0
-165 0 0 -80 0 -80 -165 0 -165 0 0 -165 0 -165 330 0 330 0 0 -330 0 -330
-85 0 -85 0 0 -80 0 -80 -325 0 -325 0 0 -80 0 -80 80 0 80 0 0 -85 0 -85 85
0 85 0 0 85 0 85 80 0 80 0 0 -85 0 -85 80 0 80 0 0 -80 0 -80 85 0 85 0 0
-80 0 -80 80 0 80 0 0 -165 0 -165 -165 0 -165 0 0 -165 0 -165 -160 0 -160 0
0 -80 0 -80 -165 0 -165 0 0 80 0 80 -165 0 -165 0 0 80 0 80 85 0 85 0 0 85
0 85 -85 0 -85 0 0 80 0 80 -80 0 -80 0 0 85 0 85 80 0 80 0 0 80 0 80 85 0
85 0 0 80 0 80 80 0 80 0 0 85 0 85 -165 0 -165 0 0 -85 0 -85 -80 0 -80 0 0
-80 0 -80 -165 0 -165 0 0 80 0 80 -80 0 -80 0 0 85 0 85 80 0 80 0 0 -85 0
-85 80 0 80 0 0 245 0 245 -80 0 -80 0 0 85 0 85 80 0 80 0 0 80 0 80 -80 0
-80 0 0 80 0 80 80 0 80 0 0 85 0 85 -80 0 -80 0 0 165 0 165 80 0 80 0 0 160
0 160 -80 0 -80 0 0 85 0 85 -80 0 -80 0 0 80 0 80 80 0 80 0 0 80 0 80 -80 0
-80 0 0 85 0 85 80 0 80 0 0 80 0 80 80 0 80 0 0 85 0 85 85 0 85 0 0 80 0 80
80 0 80 0 0 -80z m-1640 -1310 l0 -80 85 0 85 0 0 -85 0 -85 -85 0 -85 0 0
-80 0 -80 85 0 85 0 0 -85 0 -85 80 0 80 0 0 -80 0 -80 85 0 85 0 0 -80 0 -80
80 0 80 0 0 -85 0 -85 80 0 80 0 0 -80 0 -80 -80 0 -80 0 0 -80 0 -80 -80 0
-80 0 0 80 0 80 -85 0 -85 0 0 80 0 80 -80 0 -80 0 0 -80 0 -80 -85 0 -85 0 0
80 0 80 85 0 85 0 0 85 0 85 -85 0 -85 0 0 80 0 80 85 0 85 0 0 80 0 80 -85 0
-85 0 0 85 0 85 -80 0 -80 0 0 80 0 80 80 0 80 0 0 85 0 85 -80 0 -80 0 0 80
0 80 80 0 80 0 0 -80z m-1470 -165 l0 -85 85 0 85 0 0 -80 0 -80 -85 0 -85 0
0 -85 0 -85 85 0 85 0 0 -80 0 -80 80 0 80 0 0 -80 0 -80 -80 0 -80 0 0 80 0
80 -85 0 -85 0 0 -80 0 -80 -80 0 -80 0 0 80 0 80 80 0 80 0 0 80 0 80 -80 0
-80 0 0 85 0 85 80 0 80 0 0 80 0 80 -80 0 -80 0 0 85 0 85 80 0 80 0 0 -85z
m820 -655 l0 -80 80 0 80 0 0 -165 0 -165 85 0 85 0 0 -80 0 -80 80 0 80 0 0
-85 0 -85 -80 0 -80 0 0 85 0 85 -85 0 -85 0 0 80 0 80 -80 0 -80 0 0 80 0 80
-80 0 -80 0 0 165 0 165 80 0 80 0 0 -80z m-4260 -3440 l0 -80 85 0 85 0 0 80
0 80 80 0 80 0 0 -80 0 -80 85 0 85 0 0 80 0 80 160 0 160 0 0 -80 0 -80 -80
0 -80 0 0 -165 0 -165 80 0 80 0 0 -80 0 -80 -160 0 -160 0 0 -245 0 -245
-165 0 -165 0 0 -85 0 -85 80 0 80 0 0 -80 0 -80 -80 0 -80 0 0 -80 0 -80 80
0 80 0 0 -85 0 -85 -80 0 -80 0 0 -80 0 -80 80 0 80 0 0 -80 0 -80 85 0 85 0
0 -85 0 -85 -85 0 -85 0 0 -80 0 -80 -80 0 -80 0 0 -80 0 -80 -85 0 -85 0 0
80 0 80 -80 0 -80 0 0 -80 0 -80 -80 0 -80 0 0 80 0 80 -85 0 -85 0 0 -80 0
-80 -80 0 -80 0 0 80 0 80 -80 0 -80 0 0 -80 0 -80 -85 0 -85 0 0 80 0 80 -80
0 -80 0 0 80 0 80 80 0 80 0 0 85 0 85 -80 0 -80 0 0 80 0 80 80 0 80 0 0 80
0 80 -80 0 -80 0 0 85 0 85 80 0 80 0 0 80 0 80 -80 0 -80 0 0 80 0 80 80 0
80 0 0 85 0 85 -80 0 -80 0 0 80 0 80 80 0 80 0 0 85 0 85 85 0 85 0 0 80 0
80 80 0 80 0 0 80 0 80 80 0 80 0 0 85 0 85 85 0 85 0 0 80 0 80 80 0 80 0 0
80 0 80 80 0 80 0 0 -80z m4100 -2450 l0 -80 -85 0 -85 0 0 80 0 80 85 0 85 0
0 -80z m1960 0 l0 -80 -80 0 -80 0 0 80 0 80 80 0 80 0 0 -80z m2290 0 l0 -80
-80 0 -80 0 0 80 0 80 80 0 80 0 0 -80z m330 0 l0 -80 -80 0 -80 0 0 80 0 80
80 0 80 0 0 -80z"/>
<path d="M4590 13985 l0 -85 -85 0 -85 0 0 -160 0 -160 85 0 85 0 0 80 0 80
80 0 80 0 0 165 0 165 -80 0 -80 0 0 -85z"/>
<path d="M9830 11040 l0 -80 160 0 160 0 0 80 0 80 -160 0 -160 0 0 -80z"/>
<path d="M1480 10710 l0 -80 80 0 80 0 0 -80 0 -80 85 0 85 0 0 -85 0 -85 80
0 80 0 0 -80 0 -80 80 0 80 0 0 -80 0 -80 85 0 85 0 0 -85 0 -85 -85 0 -85 0
0 -80 0 -80 -80 0 -80 0 0 80 0 80 -80 0 -80 0 0 85 0 85 -85 0 -85 0 0 -85 0
-85 -80 0 -80 0 0 85 0 85 -85 0 -85 0 0 80 0 80 85 0 85 0 0 80 0 80 -85 0
-85 0 0 -80 0 -80 -80 0 -80 0 0 80 0 80 -80 0 -80 0 0 85 0 85 -85 0 -85 0 0
-85 0 -85 -80 0 -80 0 0 -80 0 -80 -80 0 -80 0 0 -80 0 -80 -85 0 -85 0 0 -85
0 -85 85 0 85 0 0 -80 0 -80 -85 0 -85 0 0 -85 0 -85 85 0 85 0 0 -80 0 -80
-85 0 -85 0 0 -80 0 -80 85 0 85 0 0 -85 0 -85 -85 0 -85 0 0 -80 0 -80 85 0
85 0 0 -80 0 -80 -85 0 -85 0 0 -85 0 -85 85 0 85 0 0 -80 0 -80 80 0 80 0 0
80 0 80 80 0 80 0 0 -80 0 -80 85 0 85 0 0 -80 0 -80 80 0 80 0 0 -85 0 -85
80 0 80 0 0 -80 0 -80 85 0 85 0 0 -85 0 -85 80 0 80 0 0 85 0 85 85 0 85 0 0
-85 0 -85 80 0 80 0 0 -80 0 -80 80 0 80 0 0 80 0 80 -80 0 -80 0 0 85 0 85
-80 0 -80 0 0 80 0 80 -85 0 -85 0 0 85 0 85 -80 0 -80 0 0 80 0 80 80 0 80 0
0 80 0 80 85 0 85 0 0 85 0 85 80 0 80 0 0 80 0 80 80 0 80 0 0 80 0 80 -80 0
-80 0 0 -80 0 -80 -80 0 -80 0 0 -80 0 -80 -85 0 -85 0 0 80 0 80 -80 0 -80 0
0 80 0 80 -85 0 -85 0 0 85 0 85 -80 0 -80 0 0 80 0 80 -80 0 -80 0 0 80 0 80
-85 0 -85 0 0 85 0 85 -80 0 -80 0 0 80 0 80 80 0 80 0 0 85 0 85 85 0 85 0 0
-85 0 -85 80 0 80 0 0 85 0 85 80 0 80 0 0 -85 0 -85 85 0 85 0 0 -80 0 -80
80 0 80 0 0 80 0 80 85 0 85 0 0 -80 0 -80 80 0 80 0 0 -85 0 -85 80 0 80 0 0
85 0 85 85 0 85 0 0 -85 0 -85 80 0 80 0 0 85 0 85 80 0 80 0 0 -85 0 -85 85
0 85 0 0 85 0 85 80 0 80 0 0 -85 0 -85 80 0 80 0 0 85 0 85 85 0 85 0 0 -85
0 -85 80 0 80 0 0 85 0 85 85 0 85 0 0 -85 0 -85 80 0 80 0 0 85 0 85 80 0 80
0 0 80 0 80 -80 0 -80 0 0 -80 0 -80 -80 0 -80 0 0 245 0 245 -85 0 -85 0 0
-80 0 -80 -245 0 -245 0 0 80 0 80 -165 0 -165 0 0 80 0 80 -80 0 -80 0 0 85
0 85 -80 0 -80 0 0 80 0 80 -85 0 -85 0 0 -165 0 -165 -80 0 -80 0 0 85 0 85
-80 0 -80 0 0 80 0 80 -85 0 -85 0 0 80 0 80 -80 0 -80 0 0 -80z m-490 -490
l0 -80 80 0 80 0 0 -80 0 -80 -80 0 -80 0 0 80 0 80 -85 0 -85 0 0 -80 0 -80
-80 0 -80 0 0 -85 0 -85 -80 0 -80 0 0 85 0 85 80 0 80 0 0 80 0 80 80 0 80 0
0 80 0 80 85 0 85 0 0 -80z m1310 0 l0 -80 80 0 80 0 0 -80 0 -80 80 0 80 0 0
-85 0 -85 85 0 85 0 0 85 0 85 80 0 80 0 0 -85 0 -85 80 0 80 0 0 -80 0 -80
-80 0 -80 0 0 80 0 80 -80 0 -80 0 0 -80 0 -80 -85 0 -85 0 0 80 0 80 -80 0
-80 0 0 -80 0 -80 -80 0 -80 0 0 80 0 80 80 0 80 0 0 85 0 85 -80 0 -80 0 0
80 0 80 -85 0 -85 0 0 80 0 80 85 0 85 0 0 -80z m1140 -490 l0 -80 -80 0 -80
0 0 80 0 80 80 0 80 0 0 -80z m-2780 -165 l0 -85 80 0 80 0 0 -80 0 -80 85 0
85 0 0 -80 0 -80 80 0 80 0 0 -85 0 -85 80 0 80 0 0 -80 0 -80 85 0 85 0 0
-80 0 -80 80 0 80 0 0 -85 0 -85 -80 0 -80 0 0 -80 0 -80 -85 0 -85 0 0 -80 0
-80 85 0 85 0 0 -85 0 -85 80 0 80 0 0 -80 0 -80 -80 0 -80 0 0 80 0 80 -85 0
-85 0 0 85 0 85 -80 0 -80 0 0 80 0 80 -80 0 -80 0 0 80 0 80 -85 0 -85 0 0
85 0 85 -80 0 -80 0 0 -85 0 -85 -80 0 -80 0 0 85 0 85 80 0 80 0 0 80 0 80
-80 0 -80 0 0 80 0 80 80 0 80 0 0 85 0 85 -80 0 -80 0 0 80 0 80 80 0 80 0 0
80 0 80 -80 0 -80 0 0 85 0 85 80 0 80 0 0 -85z"/>
<path d="M660 9240 l0 -80 80 0 80 0 0 -85 0 -85 -80 0 -80 0 0 -80 0 -80 80
0 80 0 0 -80 0 -80 85 0 85 0 0 -85 0 -85 80 0 80 0 0 -80 0 -80 80 0 80 0 0
80 0 80 -80 0 -80 0 0 85 0 85 -80 0 -80 0 0 80 0 80 80 0 80 0 0 80 0 80 -80
0 -80 0 0 85 0 85 -85 0 -85 0 0 80 0 80 -80 0 -80 0 0 -80z m330 -330 l0 -80
-85 0 -85 0 0 80 0 80 85 0 85 0 0 -80z"/>
<path d="M4100 9730 l0 -80 80 0 80 0 0 80 0 80 -80 0 -80 0 0 -80z"/>
<path d="M4750 9730 l0 -80 85 0 85 0 0 80 0 80 -85 0 -85 0 0 -80z"/>
<path d="M6060 9730 l0 -80 -80 0 -80 0 0 -85 0 -85 -85 0 -85 0 0 -80 0 -80
85 0 85 0 0 80 0 80 80 0 80 0 0 85 0 85 80 0 80 0 0 80 0 80 -80 0 -80 0 0
-80z"/>
<path d="M5410 9400 l0 -80 -85 0 -85 0 0 -80 0 -80 -80 0 -80 0 0 80 0 80
-80 0 -80 0 0 -80 0 -80 -85 0 -85 0 0 -85 0 -85 85 0 85 0 0 85 0 85 80 0 80
0 0 -85 0 -85 80 0 80 0 0 85 0 85 85 0 85 0 0 80 0 80 80 0 80 0 0 80 0 80
-80 0 -80 0 0 -80z"/>
<path d="M2300 8910 l0 -80 80 0 80 0 0 80 0 80 -80 0 -80 0 0 -80z"/>
<path d="M2620 8910 l0 -80 85 0 85 0 0 80 0 80 -85 0 -85 0 0 -80z"/>
<path d="M6550 8910 l0 -80 -80 0 -80 0 0 -80 0 -80 -85 0 -85 0 0 -85 0 -85
-80 0 -80 0 0 85 0 85 -80 0 -80 0 0 -85 0 -85 -85 0 -85 0 0 -80 0 -80 85 0
85 0 0 80 0 80 80 0 80 0 0 -80 0 -80 80 0 80 0 0 80 0 80 85 0 85 0 0 85 0
85 80 0 80 0 0 80 0 80 85 0 85 0 0 80 0 80 -85 0 -85 0 0 -80z"/>
<path d="M5410 8095 l0 -85 80 0 80 0 0 85 0 85 -80 0 -80 0 0 -85z"/>
<path d="M3610 7930 l0 -80 -85 0 -85 0 0 -85 0 -85 85 0 85 0 0 85 0 85 80 0
80 0 0 80 0 80 -80 0 -80 0 0 -80z"/>
<path d="M4920 7930 l0 -80 80 0 80 0 0 80 0 80 -80 0 -80 0 0 -80z"/>
<path d="M2460 7765 l0 -85 -80 0 -80 0 0 -80 0 -80 80 0 80 0 0 80 0 80 80 0
80 0 0 -80 0 -80 85 0 85 0 0 80 0 80 -85 0 -85 0 0 85 0 85 -80 0 -80 0 0
-85z"/>
<path d="M3110 7765 l0 -85 -80 0 -80 0 0 -80 0 -80 80 0 80 0 0 80 0 80 85 0
85 0 0 85 0 85 -85 0 -85 0 0 -85z"/>
<path d="M11950 11695 l0 -85 -80 0 -80 0 0 -80 0 -80 80 0 80 0 0 -80 0 -80
85 0 85 0 0 -85 0 -85 -85 0 -85 0 0 -80 0 -80 -80 0 -80 0 0 -85 0 -85 -80 0
-80 0 0 -80 0 -80 -85 0 -85 0 0 -80 0 -80 -80 0 -80 0 0 -85 0 -85 80 0 80 0
0 85 0 85 85 0 85 0 0 80 0 80 80 0 80 0 0 80 0 80 80 0 80 0 0 -80 0 -80 85
0 85 0 0 80 0 80 80 0 80 0 0 85 0 85 80 0 80 0 0 -85 0 -85 85 0 85 0 0 85 0
85 80 0 80 0 0 -85 0 -85 85 0 85 0 0 -80 0 -80 80 0 80 0 0 -80 0 -80 80 0
80 0 0 -85 0 -85 85 0 85 0 0 85 0 85 80 0 80 0 0 -85 0 -85 80 0 80 0 0 -80
0 -80 85 0 85 0 0 80 0 80 80 0 80 0 0 85 0 85 -80 0 -80 0 0 80 0 80 80 0 80
0 0 80 0 80 -80 0 -80 0 0 85 0 85 80 0 80 0 0 80 0 80 -80 0 -80 0 0 85 0 85
-85 0 -85 0 0 80 0 80 -80 0 -80 0 0 -80 0 -80 -80 0 -80 0 0 80 0 80 -85 0
-85 0 0 80 0 80 -80 0 -80 0 0 -80 0 -80 -80 0 -80 0 0 80 0 80 -85 0 -85 0 0
85 0 85 -80 0 -80 0 0 -85 0 -85 -85 0 -85 0 0 85 0 85 -80 0 -80 0 0 -85 0
-85 -80 0 -80 0 0 85 0 85 -85 0 -85 0 0 -85z m170 -165 l0 -80 80 0 80 0 0
80 0 80 80 0 80 0 0 -80 0 -80 85 0 85 0 0 80 0 80 80 0 80 0 0 -80 0 -80 85
0 85 0 0 -80 0 -80 80 0 80 0 0 80 0 80 80 0 80 0 0 -80 0 -80 85 0 85 0 0
-85 0 -85 80 0 80 0 0 85 0 85 80 0 80 0 0 -85 0 -85 85 0 85 0 0 -80 0 -80
-85 0 -85 0 0 -85 0 -85 85 0 85 0 0 -80 0 -80 -85 0 -85 0 0 -80 0 -80 85 0
85 0 0 -85 0 -85 -85 0 -85 0 0 85 0 85 -80 0 -80 0 0 80 0 80 -80 0 -80 0 0
-80 0 -80 -85 0 -85 0 0 80 0 80 -80 0 -80 0 0 80 0 80 -80 0 -80 0 0 85 0 85
-85 0 -85 0 0 80 0 80 -80 0 -80 0 0 -80 0 -80 -85 0 -85 0 0 80 0 80 -80 0
-80 0 0 -80 0 -80 -80 0 -80 0 0 -85 0 -85 -85 0 -85 0 0 85 0 85 85 0 85 0 0
80 0 80 80 0 80 0 0 85 0 85 -80 0 -80 0 0 80 0 80 -85 0 -85 0 0 80 0 80 85
0 85 0 0 -80z"/>
<path d="M12280 11370 l0 -80 80 0 80 0 0 -85 0 -85 85 0 85 0 0 85 0 85 80 0
80 0 0 -85 0 -85 85 0 85 0 0 -80 0 -80 80 0 80 0 0 -85 0 -85 80 0 80 0 0
-80 0 -80 85 0 85 0 0 80 0 80 80 0 80 0 0 -80 0 -80 80 0 80 0 0 80 0 80 -80
0 -80 0 0 85 0 85 80 0 80 0 0 80 0 80 -80 0 -80 0 0 -80 0 -80 -80 0 -80 0 0
80 0 80 -85 0 -85 0 0 85 0 85 -80 0 -80 0 0 -85 0 -85 -80 0 -80 0 0 85 0 85
-85 0 -85 0 0 80 0 80 -80 0 -80 0 0 -80 0 -80 -85 0 -85 0 0 80 0 80 -80 0
-80 0 0 -80z m980 -330 l0 -80 85 0 85 0 0 -85 0 -85 -85 0 -85 0 0 85 0 85
-80 0 -80 0 0 80 0 80 80 0 80 0 0 -80z"/>
<path d="M9330 8420 l0 -80 85 0 85 0 0 -80 0 -80 -85 0 -85 0 0 -85 0 -85 85
0 85 0 0 -80 0 -80 80 0 80 0 0 -85 0 -85 85 0 85 0 0 85 0 85 -85 0 -85 0 0
80 0 80 -80 0 -80 0 0 85 0 85 80 0 80 0 0 80 0 80 -80 0 -80 0 0 80 0 80 -85
0 -85 0 0 -80z"/>
<path d="M7700 8095 l0 -85 -85 0 -85 0 0 -80 0 -80 -80 0 -80 0 0 -85 0 -85
80 0 80 0 0 -80 0 -80 -80 0 -80 0 0 -80 0 -80 80 0 80 0 0 -85 0 -85 85 0 85
0 0 85 0 85 -85 0 -85 0 0 80 0 80 85 0 85 0 0 80 0 80 80 0 80 0 0 85 0 85
85 0 85 0 0 80 0 80 80 0 80 0 0 -80 0 -80 80 0 80 0 0 80 0 80 -80 0 -80 0 0
85 0 85 -80 0 -80 0 0 -85 0 -85 -85 0 -85 0 0 85 0 85 -80 0 -80 0 0 -85z
m160 -165 l0 -80 -80 0 -80 0 0 -85 0 -85 -85 0 -85 0 0 85 0 85 85 0 85 0 0
80 0 80 80 0 80 0 0 -80z"/>
<path d="M10150 6290 l0 -80 85 0 85 0 0 80 0 80 -85 0 -85 0 0 -80z"/>
<path d="M7530 5965 l0 -85 85 0 85 0 0 85 0 85 -85 0 -85 0 0 -85z"/>
<path d="M10320 5800 l0 -80 80 0 80 0 0 80 0 80 -80 0 -80 0 0 -80z"/>
<path d="M8190 5310 l0 -80 -80 0 -80 0 0 -80 0 -80 -85 0 -85 0 0 -85 0 -85
85 0 85 0 0 -80 0 -80 80 0 80 0 0 -85 0 -85 80 0 80 0 0 85 0 85 85 0 85 0 0
80 0 80 80 0 80 0 0 -80 0 -80 80 0 80 0 0 80 0 80 85 0 85 0 0 85 0 85 -85 0
-85 0 0 80 0 80 -80 0 -80 0 0 80 0 80 -80 0 -80 0 0 -80 0 -80 -85 0 -85 0 0
80 0 80 -80 0 -80 0 0 -80z m160 -160 l0 -80 85 0 85 0 0 80 0 80 80 0 80 0 0
-80 0 -80 80 0 80 0 0 -85 0 -85 -80 0 -80 0 0 85 0 85 -80 0 -80 0 0 -85 0
-85 -85 0 -85 0 0 -80 0 -80 -80 0 -80 0 0 80 0 80 -80 0 -80 0 0 85 0 85 80
0 80 0 0 80 0 80 80 0 80 0 0 -80z"/>
<path d="M8190 4985 l0 -85 80 0 80 0 0 85 0 85 -80 0 -80 0 0 -85z"/>
<path d="M6390 6130 l0 -80 80 0 80 0 0 -85 0 -85 85 0 85 0 0 -80 0 -80 80 0
80 0 0 80 0 80 -80 0 -80 0 0 85 0 85 -85 0 -85 0 0 80 0 80 -80 0 -80 0 0
-80z"/>
<path d="M1150 2530 l0 -80 -80 0 -80 0 0 -85 0 -85 -85 0 -85 0 0 -80 0 -80
-80 0 -80 0 0 -80 0 -80 -80 0 -80 0 0 -85 0 -85 -85 0 -85 0 0 -80 0 -80 85
0 85 0 0 -85 0 -85 -85 0 -85 0 0 -80 0 -80 85 0 85 0 0 -80 0 -80 -85 0 -85
0 0 -85 0 -85 85 0 85 0 0 -80 0 -80 -85 0 -85 0 0 -80 0 -80 85 0 85 0 0 -85
0 -85 -85 0 -85 0 0 -80 0 -80 85 0 85 0 0 80 0 80 80 0 80 0 0 -80 0 -80 80
0 80 0 0 80 0 80 85 0 85 0 0 -80 0 -80 80 0 80 0 0 80 0 80 80 0 80 0 0 -80
0 -80 85 0 85 0 0 80 0 80 -85 0 -85 0 0 85 0 85 -80 0 -80 0 0 80 0 80 80 0
80 0 0 80 0 80 85 0 85 0 0 85 0 85 -85 0 -85 0 0 80 0 80 85 0 85 0 0 80 0
80 -85 0 -85 0 0 85 0 85 85 0 85 0 0 80 0 80 80 0 80 0 0 85 0 85 -80 0 -80
0 0 80 0 80 80 0 80 0 0 80 0 80 -80 0 -80 0 0 85 0 85 80 0 80 0 0 80 0 80
-80 0 -80 0 0 -80 0 -80 -85 0 -85 0 0 80 0 80 -80 0 -80 0 0 -80z m160 -165
l0 -85 85 0 85 0 0 -80 0 -80 -85 0 -85 0 0 -80 0 -80 85 0 85 0 0 -85 0 -85
-85 0 -85 0 0 -80 0 -80 -80 0 -80 0 0 -85 0 -85 80 0 80 0 0 -80 0 -80 -80 0
-80 0 0 -80 0 -80 80 0 80 0 0 -85 0 -85 -80 0 -80 0 0 -80 0 -80 -80 0 -80 0
0 -80 0 -80 80 0 80 0 0 -85 0 -85 -80 0 -80 0 0 85 0 85 -85 0 -85 0 0 -85 0
-85 -80 0 -80 0 0 85 0 85 -80 0 -80 0 0 80 0 80 80 0 80 0 0 80 0 80 -80 0
-80 0 0 85 0 85 80 0 80 0 0 80 0 80 -80 0 -80 0 0 80 0 80 80 0 80 0 0 85 0
85 -80 0 -80 0 0 80 0 80 80 0 80 0 0 85 0 85 80 0 80 0 0 80 0 80 85 0 85 0
0 80 0 80 80 0 80 0 0 85 0 85 80 0 80 0 0 -85z"/>
<path d="M1150 2200 l0 -80 -80 0 -80 0 0 -80 0 -80 -85 0 -85 0 0 -85 0 -85
-80 0 -80 0 0 -80 0 -80 80 0 80 0 0 -85 0 -85 -80 0 -80 0 0 -80 0 -80 80 0
80 0 0 -80 0 -80 -80 0 -80 0 0 -85 0 -85 80 0 80 0 0 -80 0 -80 -80 0 -80 0
0 -80 0 -80 80 0 80 0 0 80 0 80 85 0 85 0 0 80 0 80 80 0 80 0 0 85 0 85 -80
0 -80 0 0 80 0 80 80 0 80 0 0 80 0 80 -80 0 -80 0 0 85 0 85 80 0 80 0 0 80
0 80 80 0 80 0 0 85 0 85 -80 0 -80 0 0 80 0 80 80 0 80 0 0 80 0 80 -80 0
-80 0 0 -80z m0 -325 l0 -85 -80 0 -80 0 0 -80 0 -80 -85 0 -85 0 0 80 0 80
85 0 85 0 0 85 0 85 80 0 80 0 0 -85z m-160 -495 l0 -80 -85 0 -85 0 0 80 0
80 85 0 85 0 0 -80z m0 -325 l0 -85 -85 0 -85 0 0 85 0 85 85 0 85 0 0 -85z"/>
<path d="M2790 565 l0 -85 80 0 80 0 0 85 0 85 -80 0 -80 0 0 -85z"/>
<path d="M2460 240 l0 -80 80 0 80 0 0 80 0 80 -80 0 -80 0 0 -80z"/>
<path d="M2790 240 l0 -80 80 0 80 0 0 80 0 80 -80 0 -80 0 0 -80z"/>
<path d="M10480 80 l0 -80 80 0 80 0 0 80 0 80 -80 0 -80 0 0 -80z"/>
<path d="M10810 80 l0 -80 80 0 80 0 0 80 0 80 -80 0 -80 0 0 -80z"/>
</g>
</svg>
